<svg xmlns="http://www.w3.org/2000/svg" viewBox="0 0 900 120" width="900" height="120" role="img" aria-label="Syncule data pipeline">
  <defs><marker id="arw" viewBox="0 0 10 10" refX="9" refY="5" markerWidth="7" markerHeight="7" orient="auto-start-reverse"><path d="M0 0 L10 5 L0 10 z" fill="#00ADD8"/></marker></defs>
  <rect width="900" height="120" fill="#0D1117"/>
  <g font-family="ui-monospace,'SF Mono','Cascadia Code','JetBrains Mono',monospace" font-size="12">
    <rect x="10" y="40" width="130" height="40" rx="8" fill="#161B22" stroke="#30363D"/>
    <text x="75" y="64" text-anchor="middle" fill="#E6EDF3">Inbox</text>
    <line x1="140" y1="60" x2="152" y2="60" stroke="#00ADD8" stroke-width="1.5" marker-end="url(#arw)"/>
    <rect x="152" y="40" width="130" height="40" rx="8" fill="#161B22" stroke="#30363D"/>
    <text x="217" y="64" text-anchor="middle" fill="#E6EDF3">Google OAuth</text>
    <line x1="282" y1="60" x2="294" y2="60" stroke="#00ADD8" stroke-width="1.5" marker-end="url(#arw)"/>
    <rect x="294" y="40" width="130" height="40" rx="8" fill="#161B22" stroke="#30363D"/>
    <text x="359" y="64" text-anchor="middle" fill="#E6EDF3">FastAPI</text>
    <line x1="424" y1="60" x2="436" y2="60" stroke="#00ADD8" stroke-width="1.5" marker-end="url(#arw)"/>
    <rect x="436" y="40" width="130" height="40" rx="8" fill="#161B22" stroke="#30363D"/>
    <text x="501" y="64" text-anchor="middle" fill="#E6EDF3">Job Queue</text>
    <line x1="566" y1="60" x2="578" y2="60" stroke="#00ADD8" stroke-width="1.5" marker-end="url(#arw)"/>
    <rect x="578" y="40" width="130" height="40" rx="8" fill="#161B22" stroke="#00ADD8"/>
    <text x="643" y="64" text-anchor="middle" fill="#E6EDF3">LLM</text>
    <line x1="708" y1="60" x2="720" y2="60" stroke="#00ADD8" stroke-width="1.5" marker-end="url(#arw)"/>
    <rect x="720" y="40" width="130" height="40" rx="8" fill="#161B22" stroke="#30363D"/>
    <text x="785" y="64" text-anchor="middle" fill="#E6EDF3">Calendar</text>
  </g>
</svg>
