<svg xmlns="http://www.w3.org/2000/svg" viewBox="0 0 900 120" width="900" height="120" role="img" aria-label="AI-Mond async processing pipeline">
  <defs><marker id="arw" viewBox="0 0 10 10" refX="9" refY="5" markerWidth="7" markerHeight="7" orient="auto-start-reverse"><path d="M0 0 L10 5 L0 10 z" fill="#0969DA"/></marker></defs>
  <rect width="900" height="120" fill="#FFFFFF"/>
  <g font-family="ui-monospace,'SF Mono','Cascadia Code','JetBrains Mono',monospace" font-size="12">
    <!-- 6 node <g> blocks at x = 10, 152, 294, 436, 578, 720 (130 wide + 12 gap); y=40 h=40 -->
    <!-- template per node: -->
    <rect x="10" y="40" width="130" height="40" rx="8" fill="#F6F8FA" stroke="#D0D7DE"/>
    <text x="75" y="64" text-anchor="middle" fill="#1F2328">Documents</text>
    <line x1="140" y1="60" x2="152" y2="60" stroke="#0969DA" stroke-width="1.5" marker-end="url(#arw)"/>
    <rect x="152" y="40" width="130" height="40" rx="8" fill="#F6F8FA" stroke="#D0D7DE"/>
    <text x="217" y="64" text-anchor="middle" fill="#1F2328">FastAPI</text>
    <line x1="282" y1="60" x2="294" y2="60" stroke="#0969DA" stroke-width="1.5" marker-end="url(#arw)"/>
    <rect x="294" y="40" width="130" height="40" rx="8" fill="#F6F8FA" stroke="#D0D7DE"/>
    <text x="359" y="64" text-anchor="middle" fill="#1F2328">Redis</text>
    <line x1="424" y1="60" x2="436" y2="60" stroke="#0969DA" stroke-width="1.5" marker-end="url(#arw)"/>
    <rect x="436" y="40" width="130" height="40" rx="8" fill="#F6F8FA" stroke="#0969DA"/>
    <text x="501" y="64" text-anchor="middle" fill="#1F2328">Celery</text>
    <line x1="566" y1="60" x2="578" y2="60" stroke="#0969DA" stroke-width="1.5" marker-end="url(#arw)"/>
    <rect x="578" y="40" width="130" height="40" rx="8" fill="#F6F8FA" stroke="#D0D7DE"/>
    <text x="643" y="64" text-anchor="middle" fill="#1F2328">Vertex AI</text>
    <line x1="708" y1="60" x2="720" y2="60" stroke="#0969DA" stroke-width="1.5" marker-end="url(#arw)"/>
    <rect x="720" y="40" width="130" height="40" rx="8" fill="#F6F8FA" stroke="#D0D7DE"/>
    <text x="785" y="64" text-anchor="middle" fill="#1F2328">MongoDB</text>
  </g>
</svg>
