<svg xmlns="http://www.w3.org/2000/svg" viewBox="0 0 900 120" width="900" height="120" role="img" aria-label="DEVSOC'25 backend pipeline">
  <defs><marker id="arw" viewBox="0 0 10 10" refX="9" refY="5" markerWidth="7" markerHeight="7" orient="auto-start-reverse"><path d="M0 0 L10 5 L0 10 z" fill="#00ADD8"/></marker></defs>
  <rect width="900" height="120" fill="#0D1117"/>
  <g font-family="ui-monospace,'SF Mono','Cascadia Code','JetBrains Mono',monospace" font-size="12">
    <rect x="100" y="40" width="130" height="40" rx="8" fill="#161B22" stroke="#30363D"/><text x="165" y="64" text-anchor="middle" fill="#E6EDF3">Users</text>
    <line x1="230" y1="60" x2="242" y2="60" stroke="#00ADD8" stroke-width="1.5" marker-end="url(#arw)"/>
    <rect x="242" y="40" width="130" height="40" rx="8" fill="#161B22" stroke="#00ADD8"/><text x="307" y="64" text-anchor="middle" fill="#E6EDF3">Go API</text>
    <line x1="372" y1="60" x2="384" y2="60" stroke="#00ADD8" stroke-width="1.5" marker-end="url(#arw)"/>
    <rect x="384" y="40" width="130" height="40" rx="8" fill="#161B22" stroke="#30363D"/><text x="449" y="64" text-anchor="middle" fill="#E6EDF3">JWT Auth</text>
    <line x1="514" y1="60" x2="526" y2="60" stroke="#00ADD8" stroke-width="1.5" marker-end="url(#arw)"/>
    <rect x="526" y="40" width="130" height="40" rx="8" fill="#161B22" stroke="#30363D"/><text x="591" y="64" text-anchor="middle" fill="#E6EDF3">Postgres</text>
    <line x1="656" y1="60" x2="668" y2="60" stroke="#00ADD8" stroke-width="1.5" marker-end="url(#arw)"/>
    <rect x="668" y="40" width="130" height="40" rx="8" fill="#161B22" stroke="#30363D"/><text x="733" y="64" text-anchor="middle" fill="#E6EDF3">Email/OTP</text>
  </g>
</svg>
